<?xml version="1.0" encoding="utf-8"?>
<!-- Generator: Adobe Illustrator 19.0.0, SVG Export Plug-In . SVG Version: 6.00 Build 0)  -->
<svg version="1.1" xmlns="http://www.w3.org/2000/svg" xmlns:xlink="http://www.w3.org/1999/xlink" x="0px" y="0px"
	 viewBox="0 0 500 500" style="enable-background:new 0 0 500 500;" xml:space="preserve">
<style type="text/css">
	.st0{fill:#F5F5F5;}
	.st1{fill:#EBEBEB;}
	.st2{fill:#27DEBF;}
	.st3{opacity:0.1;}
	.st4{fill:#FFFFFF;}
	.st5{fill:#FAFAFA;}
	.st6{fill:#E0E0E0;}
	.st7{fill:#455A64;}
	.st8{opacity:0.4;fill:#FFFFFF;}
	.st9{opacity:0.2;}
	.st10{fill:#FAFAFA;stroke:#E0E0E0;stroke-width:1.1698;stroke-miterlimit:10;}
	.st11{fill:#37474F;}
</style>
<g id="Floor">
	<path id="Floor_15_" class="st0" d="M85.5,418c88.8,45.4,232.7,45.4,321.4,0c88.8-45.4,88.8-119,0-164.3
		c-88.8-45.4-232.7-45.4-321.4,0C-3.3,299.1-3.3,372.6,85.5,418z"/>
</g>
<g id="Shadows">
	<path id="Shadow_37_" class="st1" d="M375.7,345.5c4.9,2.8,14.4,1.8,21.4-2.2l39.9-23.2c6.9-4,8.6-9.5,3.7-12.3
		c-4.9-2.8-14.4-1.9-21.4,2.2l-39.9,23.2C372.5,337.2,370.9,342.7,375.7,345.5z"/>
	<polygon id="Shadow_36_" class="st1" points="135.3,366.9 94.7,343.4 135.3,320 	"/>
	<polygon id="Shadow_35_" class="st1" points="250.1,380.9 184.6,343.1 250.1,305.4 	"/>
</g>
<g id="Plants">
	<g id="Plants_14_">
		<g id="XMLID_3252_">
			<g id="XMLID_3255_">
				<path id="XMLID_3276_" class="st2" d="M80.4,312.1c0.1-9.5-6.5-29.3-16.2-41.7c-9.7-12.5-25.1-21.7-36.2-18
					c-10.3,3.4-9.3,16.9,3,25.9c12.3,9.1,30.9,20.5,36.2,36l11.3,19L80.4,312.1z"/>
				<path id="XMLID_3256_" class="st3" d="M80.4,312.1c0.1-9.5-6.5-29.3-16.2-41.7c-9.7-12.5-25.1-21.7-36.2-18
					c-10.3,3.4-9.3,16.9,3,25.9c12.3,9.1,30.9,20.5,36.2,36l11.3,19L80.4,312.1z"/>
			</g>
			<g id="XMLID_3253_">
				<path id="XMLID_3254_" class="st4" d="M80.9,325.1c-0.3,0-0.6-0.3-0.6-0.6c-6-32.5-31.9-59.2-47.5-65.2
					c-0.4-0.1-0.5-0.5-0.4-0.9c0.1-0.4,0.5-0.5,0.9-0.4c15.9,6.1,42.3,33.2,48.4,66.2c0.1,0.4-0.2,0.7-0.6,0.8
					C81,325.1,81,325.1,80.9,325.1z"/>
			</g>
		</g>
		<g id="XMLID_3246_">
			<g id="XMLID_3250_">
				<path id="XMLID_3251_" class="st2" d="M75.8,345.8c-1.5-5.4-7.9-14.3-18.3-21.7c-11.6-8.2-26.3-12.1-29.6-18.4
					c-4-7.6,2.4-14.6,14.4-13c12,1.6,32.9,18.2,35.9,42.9L75.8,345.8z"/>
			</g>
			<g id="XMLID_3247_">
				<path id="XMLID_3249_" class="st4" d="M78.2,340.2c-0.3,0-0.5-0.2-0.6-0.5c-9.6-27.9-30.7-37.9-40.5-39.3
					c-0.4-0.1-0.6-0.4-0.6-0.8c0.1-0.4,0.4-0.6,0.8-0.6c10.8,1.5,31.8,11.7,41.6,40.2c0.1,0.4-0.1,0.8-0.4,0.9
					C78.4,340.2,78.3,340.2,78.2,340.2z"/>
			</g>
		</g>
	</g>
	<g id="Plants_15_">
		<g id="XMLID_3135_">
			<path id="XMLID_3120_" class="st2" d="M434.9,285c0,0,1.3-20,13.1-34.9c11.8-14.9,11.1-21,2.9-24c-8.1-3-27,14.9-22.8,38.9
				S434.9,285,434.9,285z"/>
			<path id="XMLID_3134_" class="st3" d="M434.9,285c0,0,1.3-20,13.1-34.9c11.8-14.9,11.1-21,2.9-24c-8.1-3-27,14.9-22.8,38.9
				S434.9,285,434.9,285z"/>
			<g id="XMLID_3136_">
				<path id="XMLID_3137_" class="st4" d="M431.3,273.6c-0.2,0-0.4-0.2-0.5-0.4c-1.4-22.1,14.2-40.2,20-44.3
					c0.2-0.1,0.5-0.1,0.6,0.1c0.1,0.2,0.1,0.5-0.1,0.6c-5.7,4-21,21.8-19.6,43.4C431.8,273.3,431.6,273.6,431.3,273.6
					C431.3,273.6,431.3,273.6,431.3,273.6z"/>
			</g>
		</g>
		<g id="XMLID_3036_">
			<g id="XMLID_3073_">
				<path id="XMLID_3119_" class="st2" d="M431.7,301.6c0,0,7.1,2.5,16.3,3.9c9.1,1.4,13.2-2.9,13.2-2.9s-3.6-8.6-8.8-11
					c0,0,8.8,1.8,15.9,6.5c0,0,5.6,0.1,7.8-8.4c0,0-3.3-5.1-14.4-7.9c0,0,6.8-1.7,16.5,0.8c0.7,0.3,3.8-10.7,4.8-15.8
					c0.9-5.1-1.1-5-5.1-6.1c-4-1.1-17.1-4-19.6-1.8c-2.5,2.2-3.7,9.6-3.7,9.6s-1.6-4.4-0.4-9.4c0,0-3.6-1.4-9.1,0.2
					c-4.5,1.3-4.7,4.4-4.5,7.9c0.1,2.5,0.8,5.3,2,8.8c0,0-3.5-4.5-3.6-14.3c0,0-9.3,4.6-10.8,13.8
					C427.1,280.4,425.9,295,431.7,301.6z"/>
				<g id="XMLID_3093_">
					<path id="XMLID_3118_" class="st4" d="M433.5,299.8c0.2,0,0.4-0.1,0.5-0.3c7.4-15.3,34.8-33.1,44.6-35c0.3-0.1,0.5-0.3,0.4-0.6
						c-0.1-0.3-0.3-0.5-0.6-0.4c-10,1.9-37.9,20-45.4,35.6c-0.1,0.3,0,0.6,0.2,0.7C433.3,299.8,433.4,299.8,433.5,299.8z"/>
				</g>
			</g>
		</g>
	</g>
</g>
<g id="Computer_Screen">
	<g id="XMLID_1118_">
		<g id="XMLID_1204_">
			<g id="XMLID_1203_">
				<path class="st5" d="M76.8,352.9c-1.1,0-1.8-0.9-1.8-2.5V182.1L281,63.2l0,167.5c0,2.6-1.8,5.7-4,7L78.4,352.4
					C77.8,352.7,77.3,352.9,76.8,352.9L76.8,352.9z"/>
				<path class="st6" d="M280.4,64.2l0,166.5c0,2.3-1.7,5.3-3.7,6.5L78.1,351.8c-0.5,0.3-1,0.4-1.3,0.4c-1.1,0-1.2-1.3-1.2-1.9
					V182.5L280.4,64.2 M281.5,62.2L74.4,181.8v168.5c0,2,1,3.1,2.4,3.1c0.6,0,1.2-0.2,1.9-0.6l198.5-114.6c2.4-1.4,4.3-4.7,4.3-7.5
					L281.5,62.2L281.5,62.2z"/>
			</g>
			<polygon id="XMLID_2173_" class="st2" points="74.4,181.8 74.4,210 281.5,90.4 281.5,62.2 			"/>
			<path id="XMLID_1167_" class="st5" d="M90.6,183.3l0,4c0,0.8,0.6,1.2,1.3,0.8l63.7-36.8l0-7l-63.7,36.8
				C91.2,181.5,90.6,182.5,90.6,183.3z"/>
			<path id="XMLID_1189_" class="st7" d="M162.4,140.3c0.7-0.4,1.3-0.1,1.3,0.8v4c0,0.8-0.6,1.8-1.3,2.3l-6.8,3.9l0-7L162.4,140.3z"
				/>
			<path id="XMLID_2992_" class="st7" d="M74.4,172.7c0-2.8,1.9-6.1,4.3-7.5L277.2,50.6c2.4-1.4,4.3-0.3,4.3,2.5v9.1L74.4,181.8
				V172.7z"/>
			<g id="XMLID_1202_">
				<path id="XMLID_1201_" class="st2" d="M258.5,66.1c-1.1,0.6-2,2.2-2,3.5s0.9,1.8,2,1.2c1.1-0.6,2-2.2,2-3.5
					C260.6,66,259.6,65.5,258.5,66.1z"/>
				<path id="XMLID_1198_" class="st2" d="M265,62.4c-1.1,0.6-2,2.2-2,3.5s0.9,1.8,2,1.2c1.1-0.6,2-2.2,2-3.5
					C267,62.3,266.1,61.8,265,62.4z"/>
				<path id="XMLID_1196_" class="st2" d="M271.4,58.7c-1.1,0.6-2,2.2-2,3.5c0,1.3,0.9,1.8,2,1.2c1.1-0.6,2-2.2,2-3.5
					C273.4,58.6,272.5,58,271.4,58.7z"/>
			</g>
			<g id="XMLID_1168_" class="st3">
				<path id="XMLID_1187_" d="M216.6,108.7c-2.5,1.4-4.4,4.9-4.4,7.7c0,2.8,2,4,4.4,2.6c2.5-1.4,4.4-4.9,4.4-7.7
					S219,107.3,216.6,108.7z"/>
				<path id="XMLID_1188_" d="M196.2,120.4c-2.5,1.4-4.4,4.9-4.4,7.7c0,2.8,2,4,4.4,2.6c2.5-1.4,4.4-4.9,4.4-7.7
					C200.7,120.1,198.7,119,196.2,120.4z"/>
				<path id="XMLID_1186_" d="M236.9,96.9c-2.5,1.4-4.4,4.9-4.4,7.7c0,2.8,2,4,4.4,2.6c2.5-1.4,4.4-4.9,4.4-7.7
					C241.3,96.7,239.3,95.5,236.9,96.9z"/>
				<path id="XMLID_1190_" d="M257.2,85.2c-2.5,1.4-4.4,4.9-4.4,7.7c0,2.8,2,4,4.4,2.6c2.5-1.4,4.4-4.9,4.4-7.7
					C261.6,84.9,259.6,83.8,257.2,85.2z"/>
			</g>
		</g>
		<path id="XMLID_2170_" class="st6" d="M95,212.1l48.2-27.8c2.4-1.4,4.3-0.3,4.3,2.5v46.3c0,2.8-1.9,6.1-4.3,7.5L95,268.4
			c-2.4,1.4-4.3,0.3-4.3-2.5l0-46.3C90.6,216.9,92.6,213.5,95,212.1z"/>
		<path id="XMLID_3029_" class="st6" d="M164,172.3L265,114c2.4-1.4,4.3-0.3,4.3,2.5v46.3c0,2.8-1.9,6.1-4.3,7.5l-101,58.3
			c-2.4,1.4-4.3,0.3-4.3-2.5l0-46.3C159.7,177,161.6,173.7,164,172.3z"/>
		<g id="XMLID_3030_">
			<path id="XMLID_3117_" class="st6" d="M95,282.5l76.6-44.2c2.4-1.4,4.3-0.4,4.3,2.2c0,2.6-1.9,5.8-4.3,7.2L95,291.9
				c-2.4,1.4-4.3,0.4-4.3-2.2C90.6,287.1,92.6,283.9,95,282.5z"/>
			<path id="XMLID_3095_" class="st6" d="M95,298.9l76.6-44.2c2.4-1.4,4.3-0.4,4.3,2.2c0,2.6-1.9,5.8-4.3,7.2L95,308.3
				c-2.4,1.4-4.3,0.4-4.3-2.2C90.6,303.5,92.6,300.3,95,298.9z"/>
			<path id="XMLID_3094_" class="st6" d="M95,315.3l76.6-44.2c2.4-1.4,4.3-0.4,4.3,2.2c0,2.6-1.9,5.8-4.3,7.2L95,324.7
				c-2.4,1.4-4.3,0.4-4.3-2.2C90.6,319.9,92.6,316.7,95,315.3z"/>
		</g>
	</g>
</g>
<g id="Envelope">
	<g id="XMLID_3248_">
		<g id="Letter_2_">
			<g id="XMLID_3260_">
				<g id="XMLID_3261_">
					<path id="XMLID_3262_" class="st2" d="M131.3,259.7c0-1.7,1.2-3.7,2.6-4.5l132.9-76.7c1.4-0.8,3.8-0.8,5.2,0l2.9,1.7
						c1.4,0.8,2.6,2.8,2.6,4.5v101.9c0,1.6-1.2,3.7-2.6,4.5L142,367.7c-1.4,0.8-3.8,0.8-5.2,0l-2.9-1.7c-1.4-0.8-2.6-2.8-2.6-4.5
						L131.3,259.7z"/>
				</g>
			</g>
			<path id="XMLID_3259_" class="st8" d="M132,257.1l7.4,4.3l137.3-79.3c-0.5-0.8-1.1-1.5-1.8-1.9l-2.9-1.7c-1.4-0.8-3.8-0.8-5.2,0
				l-132.9,76.7C133.1,255.6,132.5,256.3,132,257.1z"/>
			<path id="XMLID_3258_" class="st3" d="M131.2,259.7v101.9c0,1.7,1.2,3.7,2.6,4.5l2.9,1.7c0.2,0.1,0.5,0.2,0.7,0.3
				c0.3,0.1,0.7,0.2,1.1,0.2c0.7,0.1,1.4,0.1,2.1-0.1c0.2,0,0.3-0.1,0.5-0.1c0.1,0,0.2-0.1,0.3-0.1c-0.5,0.2-0.9,0.1-1.2,0
				c-0.5-0.3-0.8-0.8-0.8-1.7V264.4c0-1.1,0.5-1.9,1.4-2.2l-1.4-0.8l-7.4-4.3C131.5,257.9,131.2,258.8,131.2,259.7z"/>
			<path id="XMLID_3257_" class="st9" d="M139.4,261.4l61.6,23c4.4,1.6,9.3,0,11.9-3.9l9.9-15.1l54.5-83.5l-52.5,84.1l52.8,20.7
				c0,0.8-0.3,1.8-0.8,2.6l-52.2-23L213,284.5c-2.6,4.2-8,5.9-12.5,3.8l-8.2-3.6L140.2,368c-0.5-0.3-0.8-0.8-0.8-1.7v-1.7l52.7-79.9
				L139.4,261.4z"/>
		</g>
	</g>
</g>
<g id="Mobile_Screen">
	<g id="XMLID_2171_">
		<path id="XMLID_2869_" class="st10" d="M249.1,144.4v233.9c0,2.8,1.9,3.9,4.3,2.5l105.1-60.7c2.4-1.4,4.3-4.7,4.3-7.5V78.7
			c0-2.8-1.9-3.9-4.3-2.5l-105.1,60.7C251,138.3,249.1,141.6,249.1,144.4z"/>
		<path id="XMLID_2970_" class="st7" d="M255.1,148.8c0-0.6,0.5-1.5,1.1-1.8l12-6.9c0.6-0.4,1.1-0.1,1.1,0.5c0,0.6-0.5,1.5-1.1,1.8
			l-12,6.9C255.6,149.6,255.1,149.4,255.1,148.8z"/>
		<path id="XMLID_2972_" class="st7" d="M255.1,153.4c0-0.6,0.5-1.5,1.1-1.8l12-6.9c0.6-0.4,1.1-0.1,1.1,0.5c0,0.6-0.5,1.5-1.1,1.8
			l-12,6.9C255.6,154.3,255.1,154.1,255.1,153.4z"/>
		<path id="XMLID_2973_" class="st7" d="M255.1,158.1c0-0.6,0.5-1.5,1.1-1.8l12-6.9c0.6-0.4,1.1-0.1,1.1,0.5c0,0.6-0.5,1.5-1.1,1.8
			l-12,6.9C255.6,159,255.1,158.7,255.1,158.1z"/>
		<path id="XMLID_2989_" class="st11" d="M354.7,98.1v-1.9c0-0.1-0.1-0.2-0.2-0.1l-1.4,0.6c-0.1,0-0.2,0-0.2-0.1
			c-0.1-0.3-0.2-0.5-0.3-0.7c-0.1-0.1-0.1-0.2,0-0.3l1-1.9c0-0.1,0-0.2-0.1-0.3l-1-0.6c-0.1-0.1-0.2,0-0.3,0.1l-1.2,1.8
			c-0.1,0.1-0.2,0.2-0.3,0.2c-0.2,0-0.5,0-0.8,0.1c-0.1,0-0.2,0-0.2-0.2l-0.2-1.6c0-0.1-0.1-0.2-0.2-0.1l-1.6,0.9
			c-0.1,0.1-0.2,0.2-0.2,0.3l-0.2,1.8c0,0.1-0.1,0.3-0.2,0.3c-0.3,0.3-0.6,0.6-0.9,1c-0.1,0.1-0.2,0.1-0.3,0.1l-1-0.4
			c-0.1,0-0.2,0-0.3,0.1l-1.2,2.1c-0.1,0.1,0,0.2,0.1,0.3l0.8,0.7c0.1,0.1,0.1,0.2,0.1,0.3c-0.2,0.4-0.3,0.8-0.4,1.3
			c0,0.1-0.1,0.2-0.2,0.3l-1.5,1c-0.1,0.1-0.2,0.2-0.2,0.3v1.9c0,0.1,0.1,0.2,0.2,0.1l1.4-0.6c0.1,0,0.2,0,0.2,0.1
			c0.1,0.3,0.2,0.5,0.3,0.7c0.1,0.1,0.1,0.2,0,0.3l-1,1.9c0,0.1,0,0.2,0.1,0.3l1,0.6c0.1,0.1,0.2,0,0.3-0.1l1.2-1.8
			c0.1-0.1,0.2-0.2,0.3-0.2c0.2,0,0.5,0,0.8-0.1c0.1,0,0.2,0,0.2,0.2l0.2,1.6c0,0.1,0.1,0.2,0.2,0.1l1.6-0.9
			c0.1-0.1,0.2-0.2,0.2-0.3l0.2-1.8c0-0.1,0.1-0.3,0.2-0.3c0.3-0.3,0.6-0.6,0.9-1c0.1-0.1,0.2-0.1,0.3-0.1l1,0.4
			c0.1,0,0.2,0,0.3-0.1l1.2-2.1c0.1-0.1,0-0.2-0.1-0.3l-0.8-0.7c-0.1-0.1-0.1-0.2-0.1-0.3c0.2-0.4,0.3-0.8,0.4-1.3
			c0-0.1,0.1-0.2,0.2-0.3l1.5-1C354.6,98.4,354.7,98.2,354.7,98.1z M348.3,104c-1.5,0.9-2.7,0.2-2.7-1.6c0-1.7,1.2-3.9,2.7-4.7
			c1.5-0.9,2.7-0.2,2.7,1.6C351.1,101,349.8,103.1,348.3,104z"/>
		<g id="XMLID_3074_">
			<path id="XMLID_3091_" class="st7" d="M305.9,144.2c12.3-7.1,22.2-1.3,22.2,12.8s-10,31.4-22.2,38.5
				c-12.3,7.1-22.2,1.3-22.2-12.8C283.7,168.5,293.6,151.3,305.9,144.2z"/>
			<path id="XMLID_3076_" class="st2" d="M305.8,155.4c4-2.3,7.2-0.4,7.2,4.2c0,4.6-3.2,10.2-7.2,12.5c-4,2.3-7.2,0.4-7.2-4.2
				C298.6,163.2,301.8,157.7,305.8,155.4z"/>
			<path id="XMLID_3075_" class="st2" d="M320,179.9c0-7.6-5.3-10.6-11.8-6.8l-4.1,2.4c-6.5,3.8-11.8,13-11.8,20.5v2.1
				c1.2,0.4,2.5,0.6,3.8,0.6c3,0,6.3-1,9.9-3c5.3-3.1,10.2-8.1,14.1-13.9V179.9z"/>
		</g>
		<path id="XMLID_3140_" class="st2" d="M285.9,216.6l40.1-23.2c1.2-0.7,2.2-0.2,2.2,1.1c0,1.3-1,2.9-2.2,3.6l-40.1,23.2
			c-1.2,0.7-2.2,0.2-2.2-1.1S284.7,217.3,285.9,216.6z"/>
		<path id="XMLID_3142_" class="st7" d="M281.5,233.2l48.7-28.2c1.2-0.7,2.2-0.2,2.2,1.1s-1,2.9-2.2,3.6l-48.7,28.2
			c-1.2,0.7-2.2,0.2-2.2-1.1C279.4,235.5,280.4,233.9,281.5,233.2z"/>
		<path id="XMLID_3148_" class="st11" d="M331.6,227.7l13.6-7.9c0.7-0.4,1.3-0.2,1.3,0.4c0,0.6-0.6,1.5-1.3,1.9l-13.6,7.9
			c-0.7,0.4-1.3,0.2-1.3-0.4S330.9,228.2,331.6,227.7z"/>
		<g id="XMLID_3157_">
			<path id="XMLID_3141_" class="st2" d="M263.4,262.4l20-11.6c1.2-0.7,2.2-0.1,2.2,1.3v13.8c0,1.4-1,3.1-2.2,3.8l-20,11.6
				c-1.2,0.7-2.2,0.1-2.2-1.3v-13.8C261.2,264.8,262.2,263.1,263.4,262.4z"/>
			<path id="XMLID_3143_" class="st5" d="M266.6,264.4l13.6-7.9c0.7-0.4,1.3-0.2,1.3,0.4c0,0.6-0.6,1.5-1.3,1.9l-13.6,7.9
				c-0.7,0.4-1.3,0.2-1.3-0.4C265.3,265.6,265.9,264.8,266.6,264.4z"/>
			<path id="XMLID_3146_" class="st5" d="M265.3,271.3v4c0,0.8,0.6,1.2,1.3,0.7l13.6-7.9c0.7-0.4,1.3-1.4,1.3-2.3l0-4
				c0-0.8-0.6-1.2-1.3-0.8l-13.6,7.9C265.9,269.5,265.3,270.5,265.3,271.3z"/>
		</g>
		<g id="XMLID_3149_">
			<path id="XMLID_3155_" class="st2" d="M295.9,243.7l20-11.6c1.2-0.7,2.2-0.1,2.2,1.3l0,13.8c0,1.4-1,3.1-2.2,3.8l-20,11.6
				c-1.2,0.7-2.2,0.1-2.2-1.3l0-13.8C293.7,246,294.7,244.4,295.9,243.7z"/>
			<path id="XMLID_3154_" class="st5" d="M299.1,245.6l13.6-7.9c0.7-0.4,1.3-0.2,1.3,0.4c0,0.6-0.6,1.5-1.3,1.9l-13.6,7.9
				c-0.7,0.4-1.3,0.2-1.3-0.4S298.4,246,299.1,245.6z"/>
			<path id="XMLID_3153_" class="st5" d="M297.8,252.5v4c0,0.8,0.6,1.2,1.3,0.7l13.6-7.9c0.7-0.4,1.3-1.4,1.3-2.3l0-4
				c0-0.8-0.6-1.2-1.3-0.8l-13.6,7.9C298.4,250.7,297.8,251.7,297.8,252.5z"/>
		</g>
		<g id="XMLID_3159_">
			<path id="XMLID_3176_" class="st2" d="M328.4,224.9l20-11.6c1.2-0.7,2.2-0.1,2.2,1.3v13.8c0,1.4-1,3.1-2.2,3.8l-20,11.6
				c-1.2,0.7-2.2,0.1-2.2-1.3v-13.8C326.2,227.3,327.2,225.6,328.4,224.9z"/>
			<path id="XMLID_3173_" class="st5" d="M331.6,226.8l13.6-7.9c0.7-0.4,1.3-0.2,1.3,0.4c0,0.6-0.6,1.5-1.3,1.9l-13.6,7.9
				c-0.7,0.4-1.3,0.2-1.3-0.4S330.9,227.2,331.6,226.8z"/>
			<path id="XMLID_3163_" class="st5" d="M330.3,233.8v4c0,0.8,0.6,1.2,1.3,0.7l13.6-7.9c0.7-0.4,1.3-1.4,1.3-2.3l0-4
				c0-0.8-0.6-1.2-1.3-0.8l-13.6,7.9C330.9,231.9,330.3,232.9,330.3,233.8z"/>
		</g>
		<path id="XMLID_3144_" class="st6" d="M265.6,294l80.7-46.6c2.4-1.4,4.3-0.4,4.3,2.2c0,2.6-1.9,5.8-4.3,7.2l-80.7,46.6
			c-2.4,1.4-4.3,0.4-4.3-2.2C261.2,298.6,263.2,295.4,265.6,294z"/>
		<path id="XMLID_3147_" class="st6" d="M265.6,312.8l80.7-46.6c2.4-1.4,4.3-0.4,4.3,2.2s-1.9,5.8-4.3,7.2l-80.7,46.6
			c-2.4,1.4-4.3,0.4-4.3-2.2C261.2,317.4,263.2,314.2,265.6,312.8z"/>
		<path id="XMLID_3178_" class="st2" d="M291.8,321.1l28.2-16.3c1.2-0.7,2.2-0.1,2.2,1.3l0,9.1c0,1.4-1,3.1-2.2,3.8l-28.2,16.3
			c-1.2,0.7-2.2,0.1-2.2-1.3l0-9.1C289.7,323.4,290.6,321.8,291.8,321.1z"/>
		<g id="XMLID_3180_">
			<path id="XMLID_3027_" class="st5" d="M267.3,295.4c-1.1,0.6-2,2.2-2,3.5c0,1.3,0.9,1.8,2,1.2c1.1-0.6,2-2.2,2-3.5
				C269.4,295.3,268.5,294.7,267.3,295.4z"/>
			<path id="XMLID_3023_" class="st5" d="M273.8,291.7c-1.1,0.6-2,2.2-2,3.5c0,1.3,0.9,1.8,2,1.2c1.1-0.6,2-2.2,2-3.5
				C275.8,291.5,274.9,291,273.8,291.7z"/>
			<path id="XMLID_3021_" class="st5" d="M280.2,288c-1.1,0.6-2,2.2-2,3.5c0,1.3,0.9,1.8,2,1.2c1.1-0.6,2-2.2,2-3.5
				S281.3,287.3,280.2,288z"/>
			<path id="XMLID_2993_" class="st5" d="M286.6,284.2c-1.1,0.6-2,2.2-2,3.5c0,1.3,0.9,1.8,2,1.2c1.1-0.6,2-2.2,2-3.5
				C288.7,284.1,287.8,283.6,286.6,284.2z"/>
			<path id="XMLID_2176_" class="st5" d="M293.1,280.5c-1.1,0.6-2,2.2-2,3.5c0,1.3,0.9,1.8,2,1.2c1.1-0.6,2-2.2,2-3.5
				C295.1,280.4,294.2,279.9,293.1,280.5z"/>
			<path id="XMLID_2175_" class="st5" d="M299.5,276.8c-1.1,0.6-2,2.2-2,3.5c0,1.3,0.9,1.8,2,1.2c1.1-0.6,2-2.2,2-3.5
				S300.6,276.1,299.5,276.8z"/>
			<path id="XMLID_2174_" class="st5" d="M305.9,273.1c-1.1,0.6-2,2.2-2,3.5c0,1.3,0.9,1.8,2,1.2c1.1-0.6,2-2.2,2-3.5
				C308,272.9,307.1,272.4,305.9,273.1z"/>
		</g>
		<g id="XMLID_2172_">
			<path id="XMLID_3020_" class="st5" d="M267.3,314.2c-1.1,0.6-2,2.2-2,3.5c0,1.3,0.9,1.8,2,1.2c1.1-0.6,2-2.2,2-3.5
				S268.5,313.5,267.3,314.2z"/>
			<path id="XMLID_3017_" class="st5" d="M273.8,310.5c-1.1,0.6-2,2.2-2,3.5c0,1.3,0.9,1.8,2,1.2c1.1-0.6,2-2.2,2-3.5
				C275.8,310.3,274.9,309.8,273.8,310.5z"/>
			<path id="XMLID_3016_" class="st5" d="M280.2,306.7c-1.1,0.6-2,2.2-2,3.5c0,1.3,0.9,1.8,2,1.2c1.1-0.6,2-2.2,2-3.5
				C282.2,306.6,281.3,306.1,280.2,306.7z"/>
			<path id="XMLID_3015_" class="st5" d="M286.6,303c-1.1,0.6-2,2.2-2,3.5c0,1.3,0.9,1.8,2,1.2c1.1-0.6,2-2.2,2-3.5
				S287.8,302.4,286.6,303z"/>
			<path id="XMLID_3008_" class="st5" d="M293.1,299.3c-1.1,0.6-2,2.2-2,3.5c0,1.3,0.9,1.8,2,1.2c1.1-0.6,2-2.2,2-3.5
				C295.1,299.2,294.2,298.6,293.1,299.3z"/>
			<path id="XMLID_2995_" class="st5" d="M299.5,295.6c-1.1,0.6-2,2.2-2,3.5c0,1.3,0.9,1.8,2,1.2c1.1-0.6,2-2.2,2-3.5
				C301.5,295.4,300.6,294.9,299.5,295.6z"/>
			<path id="XMLID_2994_" class="st5" d="M305.9,291.9c-1.1,0.6-2,2.2-2,3.5c0,1.3,0.9,1.8,2,1.2c1.1-0.6,2-2.2,2-3.5
				C308,291.7,307.1,291.2,305.9,291.9z"/>
		</g>
	</g>
</g>
<g id="Key">
	<g id="XMLID_1166_">
		<g id="XMLID_1191_">
			<g id="XMLID_1192_">
				<path id="XMLID_2975_" class="st7" d="M396.2,334.1c-3.5,0-6.8-0.9-9.8-2.6c-7.2-4.2-11.3-12.9-11.3-23.9
					c0-19.4,12.3-41.7,28-50.8c8.5-4.9,16.9-5.4,23.7-1.5c7.2,4.2,11.3,12.9,11.3,23.9c0,19.4-12.3,41.7-28,50.8
					C405.3,332.8,400.6,334.1,396.2,334.1z M416.8,266.7c-2.5,0-5.2,1.3-6.8,2.2c-11.4,6.6-21.1,24.3-21.1,38.7
					c0,5.8,1.6,10.2,4.4,11.8c3.1,1.8,7.4-0.2,9.7-1.5c11.4-6.6,21.1-24.3,21.1-38.7c0-5.8-1.6-10.2-4.4-11.8
					C418.9,267,417.9,266.7,416.8,266.7z"/>
			</g>
			<path id="XMLID_2986_" class="st11" d="M426.6,282.4c0-10.9-6.9-14.9-6.9-14.9l0,0c2.7,1.6,4.4,6,4.4,11.8
				c0,14.4-9.6,32.1-21.1,38.7c-2.3,1.3-6.6,3.3-9.7,1.5c0,0,5.8,3.6,13.8-0.8C418.7,312.4,426.6,296.8,426.6,282.4z"/>
		</g>
		<path id="XMLID_2978_" class="st11" d="M415.6,146.3c0-4-3.2-7.2-7.2-7.2c-4,0-7.2,3.2-7.2,7.2c0,0,0,0,0,0h0V261l0,0
			c0,1.1,0.7,2.1,2.1,2.9c2.8,1.6,7.4,1.6,10.2,0c1.4-0.8,2.1-1.9,2.1-2.9l0,0V146.3L415.6,146.3
			C415.6,146.3,415.6,146.3,415.6,146.3z"/>
		<path id="XMLID_2974_" class="st7" d="M409.8,171.9c0-2.7-1.9-5.9-4.2-7.2c-1.2-0.7-2.2-0.7-3-0.3l0,0l-17.8,10.3l-0.4,0.3
			c-0.1,0-0.1,0.1-0.2,0.1c-0.3,0.2-0.6,0.4-0.9,0.7c-1.1,1.1-1.7,2.6-1.7,4.2c0,2.2,1.2,4.2,3.1,5.2c0.8,0.5,1.8,0.7,2.8,0.7
			c1,0,2-0.3,2.8-0.7c0.1-0.1,0.2-0.1,0.3-0.2l17.9-10.3l0,0C409.4,174.2,409.8,173.2,409.8,171.9z"/>
		<path id="XMLID_2971_" class="st7" d="M409.8,200.7c0-2.7-1.9-5.9-4.2-7.2c-1.2-0.7-2.2-0.7-3-0.3l0,0l-20.9,12l-0.4,0.3
			c-0.1,0-0.1,0.1-0.2,0.1c-0.3,0.2-0.6,0.4-0.9,0.7c-1.1,1.1-1.7,2.6-1.7,4.2c0,2.2,1.2,4.2,3.1,5.2c0.8,0.5,1.8,0.7,2.8,0.7
			c1,0,2-0.3,2.8-0.7c0.1-0.1,0.2-0.1,0.3-0.2l21-12l0,0C409.4,202.9,409.8,202,409.8,200.7z"/>
	</g>
</g>
</svg>
